<svg width="161" height="157" viewBox="0 0 161 157" fill="none" xmlns="http://www.w3.org/2000/svg">
<g clip-path="url(#clip0_15_155)">
<path fill-rule="evenodd" clip-rule="evenodd" d="M80.5007 4.87237e-06C36.0472 4.87237e-06 0 36.0336 0 80.4868C0 116.049 23.0659 146.219 55.0513 156.862C59.0744 157.607 60.5515 155.116 60.5515 152.99C60.5515 151.07 60.4768 144.73 60.4422 138.005C38.0468 142.873 33.3211 128.508 33.3211 128.508C29.6592 119.205 24.383 116.731 24.383 116.731C17.0792 111.735 24.9335 111.838 24.9335 111.838C33.0172 112.405 37.2736 120.132 37.2736 120.132C44.4535 132.437 56.1057 128.88 60.6994 126.823C61.422 121.622 63.5082 118.069 65.8104 116.061C47.9301 114.025 29.134 107.124 29.134 76.283C29.134 67.4955 32.2787 60.3154 37.4283 54.6788C36.5924 52.6502 33.837 44.4652 38.2081 33.3785C38.2081 33.3785 44.968 31.2153 60.3515 41.6289C66.7728 39.8455 73.6594 38.9512 80.5007 38.9205C87.3419 38.9512 94.2338 39.8455 100.667 41.6289C116.032 31.2153 122.783 33.3785 122.783 33.3785C127.164 44.4652 124.408 52.6502 123.572 54.6788C128.733 60.3154 131.857 67.4955 131.857 76.283C131.857 107.197 113.025 114.004 95.099 115.997C97.9864 118.494 100.559 123.393 100.559 130.902C100.559 141.67 100.466 150.337 100.466 152.99C100.466 155.132 101.915 157.641 105.995 156.851C137.963 146.196 161 116.037 161 80.4868C161 36.0336 124.958 4.87237e-06 80.5007 4.87237e-06" fill="white"/>
<path d="M30.496 115.604C30.3186 116.005 29.6893 116.124 29.116 115.849C28.532 115.587 28.204 115.041 28.3933 114.64C28.5666 114.228 29.1973 114.115 29.78 114.388C30.3653 114.652 30.6986 115.203 30.496 115.604" fill="white"/>
<path d="M33.7573 119.241C33.3733 119.597 32.6226 119.432 32.1133 118.869C31.5866 118.308 31.488 117.557 31.8773 117.196C32.2733 116.84 33.0013 117.007 33.5293 117.568C34.0559 118.136 34.1586 118.881 33.7573 119.241Z" fill="white"/>
<path d="M36.932 123.879C36.4387 124.221 35.632 123.9 35.1333 123.184C34.64 122.468 34.64 121.609 35.144 121.265C35.644 120.921 36.4387 121.231 36.944 121.941C37.436 122.668 37.436 123.528 36.932 123.879" fill="white"/>
<path d="M41.2813 128.359C40.84 128.845 39.9 128.715 39.212 128.051C38.508 127.401 38.312 126.48 38.7547 125.993C39.2013 125.505 40.1466 125.643 40.84 126.301C41.5386 126.949 41.752 127.877 41.2813 128.359Z" fill="white"/>
<path d="M47.2814 130.96C47.0867 131.591 46.1813 131.877 45.2693 131.609C44.3587 131.333 43.7627 130.595 43.9467 129.957C44.136 129.323 45.0453 129.024 45.964 129.311C46.8733 129.585 47.4707 130.319 47.2814 130.96" fill="white"/>
<path d="M53.8706 131.443C53.8933 132.107 53.12 132.657 52.1626 132.668C51.2 132.691 50.4213 132.153 50.4106 131.5C50.4106 130.829 51.1666 130.284 52.1293 130.268C53.0866 130.249 53.8706 130.783 53.8706 131.443Z" fill="white"/>
<path d="M60.0026 130.399C60.1173 131.047 59.452 131.712 58.5013 131.888C57.5666 132.06 56.7013 131.66 56.5826 131.017C56.4666 130.353 57.144 129.688 58.0773 129.516C59.0293 129.351 59.8813 129.74 60.0026 130.399Z" fill="white"/>
</g>
<defs>
<clipPath id="clip0_15_155">
<rect width="161" height="157" fill="white"/>
</clipPath>
</defs>
</svg>
