<svg width="100" height="100" viewBox="0 0 100 100" fill="none" xmlns="http://www.w3.org/2000/svg">
<rect width="100" height="100" rx="20" fill="url(#paint0_linear_563_51)"/>
<path d="M84.0789 58.0111C84.6814 55.4384 85 52.7564 85 50C85 47.1588 84.6615 44.3967 84.0225 41.7517C83.9857 41.6802 83.9477 41.6095 83.9086 41.5397C83.4583 40.7244 82.8802 40.0307 82.1744 39.4587C81.4685 38.8867 80.6531 38.4486 79.7282 38.1443C78.8154 37.8401 77.8236 37.6879 76.7526 37.6879C74.8176 37.6879 73.132 38.1687 71.6959 39.1301C70.2599 40.0793 69.1463 41.4667 68.3553 43.2922C67.5642 45.1056 67.1687 47.3083 67.1687 49.9006C67.1687 52.5658 67.5642 54.8051 68.3553 56.6184C69.1585 58.4318 70.2781 59.8009 71.7142 60.7258C73.1503 61.6507 74.8115 62.1132 76.6978 62.1132C77.7566 62.1132 78.7363 61.9732 79.6369 61.6933C80.5497 61.4134 81.359 61.0057 82.0648 60.4702C82.7707 59.9226 83.3548 59.2593 83.8173 58.4804C83.9101 58.3282 83.9973 58.1717 84.0789 58.0111Z" fill="#FDFFFC"/>
<path d="M79.4533 68.9157C73.2263 78.5915 62.3615 85 50 85C30.67 85 15 69.33 15 50C15 30.67 30.67 15 50 15C62.27 15 73.0653 21.3139 79.3142 30.8699C78.4295 30.7541 77.5148 30.6962 76.57 30.6962C73.2841 30.6962 70.3268 31.4508 67.6981 32.9599C65.0694 34.4568 62.9883 36.6352 61.4549 39.4952C59.9214 42.3551 59.1547 45.8236 59.1547 49.9006C59.1547 53.9654 59.9093 57.4277 61.4183 60.2877C62.9396 63.1477 65.0085 65.3322 67.6251 66.8413C70.2538 68.3503 73.2355 69.1049 76.57 69.1049C77.575 69.1049 78.536 69.0418 79.4533 68.9157Z" fill="#FDFFFC"/>
<defs>
<linearGradient id="paint0_linear_563_51" x1="50" y1="0" x2="50" y2="100" gradientUnits="userSpaceOnUse">
<stop stop-color="#41EAD4"/>
<stop offset="1" stop-color="#0CB7A0"/>
</linearGradient>
</defs>
</svg>
