<svg width="100" height="100" viewBox="0 0 100 100" fill="none" xmlns="http://www.w3.org/2000/svg">
<path d="M98.6842 61.4444C99.5448 57.7691 100 53.9377 100 50C100 45.9411 99.5164 41.9952 98.6036 38.2168C98.551 38.1146 98.4967 38.0136 98.4408 37.9139C97.7976 36.7491 96.9717 35.7581 95.9634 34.941C94.955 34.1238 93.7901 33.4979 92.4688 33.0633C91.1649 32.6287 89.7479 32.4113 88.218 32.4113C85.4537 32.4113 83.0457 33.0981 80.9942 34.4715C78.9427 35.8276 77.3519 37.8096 76.2218 40.4175C75.0917 43.008 74.5267 46.1548 74.5267 49.858C74.5267 53.6654 75.0917 56.8644 76.2218 59.4549C77.3693 62.0454 78.9688 64.0013 81.0203 65.3226C83.0718 66.6439 85.445 67.3046 88.1398 67.3046C89.6523 67.3046 91.0519 67.1046 92.3384 66.7048C93.6424 66.3049 94.7985 65.7225 95.8069 64.9575C96.8153 64.1751 97.6498 63.2276 98.3104 62.1149C98.443 61.8974 98.5676 61.6739 98.6842 61.4444Z" fill="#FDFFFC"/>
<path d="M92.0761 77.0224C83.1804 90.8451 67.6593 100 50 100C22.3858 100 0 77.6142 0 50C0 22.3858 22.3858 0 50 0C67.5285 0 82.9504 9.01982 91.8774 22.6712C90.6136 22.5059 89.3069 22.4232 87.9572 22.4232C83.2631 22.4232 79.0383 23.5011 75.283 25.657C71.5277 27.7954 68.5547 30.9075 66.3641 34.9931C64.1735 39.0788 63.0782 44.0337 63.0782 49.858C63.0782 55.6648 64.1561 60.6111 66.3119 64.6967C68.4851 68.7824 71.4407 71.9031 75.1787 74.0589C78.934 76.2148 83.1935 77.2927 87.9572 77.2927C89.3928 77.2927 90.7658 77.2026 92.0761 77.0224Z" fill="#FDFFFC"/>
</svg>
