<svg width="40" height="40" viewBox="0 0 40 40" fill="none" xmlns="http://www.w3.org/2000/svg">
<rect width="40" height="40" rx="8" fill="url(#paint0_linear_26_40)"/>
<rect width="40" height="40" rx="8" fill="url(#paint1_linear_26_40)"/>
<path d="M33.6316 23.2044C33.8725 22.1753 34 21.1026 34 20C34 18.8635 33.8646 17.7587 33.609 16.7007C33.5943 16.6721 33.5791 16.6438 33.5634 16.6159C33.3833 16.2897 33.1521 16.0123 32.8697 15.7835C32.5874 15.5547 32.2612 15.3794 31.8913 15.2577C31.5262 15.136 31.1294 15.0752 30.701 15.0752C29.927 15.0752 29.2528 15.2675 28.6784 15.652C28.104 16.0317 27.6585 16.5867 27.3421 17.3169C27.0257 18.0422 26.8675 18.9233 26.8675 19.9602C26.8675 21.0263 27.0257 21.922 27.3421 22.6474C27.6634 23.3727 28.1113 23.9204 28.6857 24.2903C29.2601 24.6603 29.9246 24.8453 30.6791 24.8453C31.1027 24.8453 31.4945 24.7893 31.8548 24.6773C32.2199 24.5654 32.5436 24.4023 32.8259 24.1881C33.1083 23.969 33.3419 23.7037 33.5269 23.3922C33.564 23.3313 33.5989 23.2687 33.6316 23.2044Z" fill="#FDFFFC"/>
<path d="M31.7813 27.5663C29.2905 31.4366 24.9446 34 20 34C12.268 34 6 27.732 6 20C6 12.268 12.268 6 20 6C24.908 6 29.2261 8.52555 31.7257 12.3479C31.3718 12.3016 31.0059 12.2785 30.628 12.2785C29.3137 12.2785 28.1307 12.5803 27.0792 13.1839C26.0277 13.7827 25.1953 14.6541 24.5819 15.7981C23.9686 16.9421 23.6619 18.3294 23.6619 19.9602C23.6619 21.5861 23.9637 22.9711 24.5673 24.1151C25.1758 25.2591 26.0034 26.1329 27.05 26.7365C28.1015 27.3401 29.2942 27.642 30.628 27.642C31.03 27.642 31.4144 27.6167 31.7813 27.5663Z" fill="#FDFFFC"/>
<defs>
<linearGradient id="paint0_linear_26_40" x1="20" y1="0" x2="20" y2="40" gradientUnits="userSpaceOnUse">
<stop stop-color="#3F80FF"/>
<stop offset="1" stop-color="#2851E2"/>
</linearGradient>
<linearGradient id="paint1_linear_26_40" x1="20" y1="0" x2="20" y2="40" gradientUnits="userSpaceOnUse">
<stop stop-color="#123F91"/>
<stop offset="1" stop-color="#0C2C66"/>
</linearGradient>
</defs>
</svg>
