<svg width="40" height="40" viewBox="0 0 40 40" fill="none" xmlns="http://www.w3.org/2000/svg">
<path fill-rule="evenodd" clip-rule="evenodd" d="M8 0C3.58172 0 0 3.58172 0 8V32C0 36.4183 3.58172 40 8 40H32C36.4183 40 40 36.4183 40 32V8C40 3.58172 36.4183 0 32 0H8ZM20 34C24.9446 34 29.2905 31.4366 31.7813 27.5663C31.4144 27.6167 31.03 27.642 30.628 27.642C29.2942 27.642 28.1015 27.3401 27.05 26.7365C26.0034 26.1329 25.1758 25.2591 24.5673 24.1151C23.9637 22.9711 23.6619 21.5861 23.6619 19.9602C23.6619 18.3294 23.9686 16.9421 24.5819 15.7981C25.1953 14.6541 26.0277 13.7827 27.0792 13.1839C28.1307 12.5803 29.3137 12.2785 30.628 12.2785C31.0059 12.2785 31.3718 12.3016 31.7257 12.3479C29.2261 8.52555 24.908 6 20 6C12.268 6 6 12.268 6 20C6 27.732 12.268 34 20 34ZM34 20C34 21.1026 33.8725 22.1753 33.6316 23.2044C33.5989 23.2687 33.564 23.3313 33.5269 23.3922C33.3419 23.7037 33.1083 23.969 32.8259 24.1881C32.5436 24.4023 32.2199 24.5654 31.8548 24.6773C31.4945 24.7893 31.1026 24.8453 30.6791 24.8453C29.9246 24.8453 29.2601 24.6603 28.6857 24.2903C28.1113 23.9204 27.6634 23.3727 27.3421 22.6474C27.0257 21.922 26.8675 21.0263 26.8675 19.9602C26.8675 18.9233 27.0257 18.0422 27.3421 17.3169C27.6585 16.5867 28.104 16.0317 28.6784 15.652C29.2528 15.2675 29.927 15.0752 30.701 15.0752C31.1294 15.0752 31.5262 15.136 31.8913 15.2577C32.2612 15.3794 32.5874 15.5547 32.8697 15.7835C33.1521 16.0123 33.3833 16.2897 33.5634 16.6159C33.5791 16.6438 33.5943 16.6721 33.609 16.7007C33.8646 17.7587 34 18.8635 34 20Z" fill="#FDFFFC"/>
</svg>
