<svg width="100" height="100" viewBox="0 0 100 100" fill="none" xmlns="http://www.w3.org/2000/svg">
<path fill-rule="evenodd" clip-rule="evenodd" d="M20 0C8.95431 0 0 8.9543 0 20V80C0 91.0457 8.9543 100 20 100H80C91.0457 100 100 91.0457 100 80V20C100 8.95431 91.0457 0 80 0H20ZM50 85C62.3615 85 73.2263 78.5915 79.4533 68.9157C78.536 69.0418 77.575 69.1049 76.57 69.1049C73.2355 69.1049 70.2538 68.3503 67.6251 66.8413C65.0085 65.3322 62.9396 63.1477 61.4183 60.2877C59.9093 57.4277 59.1547 53.9654 59.1547 49.9006C59.1547 45.8236 59.9214 42.3551 61.4549 39.4952C62.9883 36.6352 65.0694 34.4568 67.6981 32.9599C70.3268 31.4508 73.2841 30.6962 76.57 30.6962C77.5148 30.6962 78.4296 30.7541 79.3142 30.8699C73.0653 21.3139 62.27 15 50 15C30.67 15 15 30.67 15 50C15 69.33 30.67 85 50 85ZM85 50C85 52.7564 84.6814 55.4384 84.0789 58.0111C83.9973 58.1717 83.9101 58.3282 83.8173 58.4804C83.3548 59.2593 82.7707 59.9226 82.0648 60.4702C81.359 61.0057 80.5497 61.4134 79.6369 61.6933C78.7363 61.9732 77.7566 62.1132 76.6978 62.1132C74.8115 62.1132 73.1503 61.6507 71.7142 60.7258C70.2781 59.8009 69.1585 58.4318 68.3553 56.6184C67.5642 54.8051 67.1687 52.5658 67.1687 49.9006C67.1687 47.3083 67.5642 45.1056 68.3553 43.2922C69.1463 41.4667 70.2599 40.0793 71.6959 39.1301C73.132 38.1687 74.8176 37.6879 76.7526 37.6879C77.8236 37.6879 78.8154 37.8401 79.7282 38.1443C80.6531 38.4486 81.4685 38.8867 82.1744 39.4587C82.8802 40.0307 83.4583 40.7244 83.9086 41.5397C83.9477 41.6095 83.9857 41.6802 84.0225 41.7518C84.6615 44.3967 85 47.1588 85 50Z" fill="#011627"/>
</svg>
