<?xml version="1.0" standalone="no"?>
<!DOCTYPE svg PUBLIC "-//W3C//DTD SVG 20010904//EN"
 "http://www.w3.org/TR/2001/REC-SVG-20010904/DTD/svg10.dtd">
<svg version="1.0" xmlns="http://www.w3.org/2000/svg"
 width="700.000000pt" height="700.000000pt" viewBox="0 0 700.000000 700.000000"
 preserveAspectRatio="xMidYMid meet">
<metadata>
Created by potrace 1.14, written by Peter Selinger 2001-2017
</metadata>
<g transform="translate(0.000000,700.000000) scale(0.100000,-0.100000)"
fill="#000000" stroke="none">
<path d="M3278 6995 c-1 -1 -42 -5 -89 -9 -47 -4 -95 -8 -106 -10 -11 -3 -44
-7 -74 -11 -102 -12 -217 -34 -344 -67 -44 -11 -89 -22 -101 -24 -91 -17 -415
-140 -579 -220 -180 -87 -448 -247 -555 -331 -8 -6 -51 -40 -95 -74 -342 -266
-650 -623 -875 -1014 -47 -83 -170 -327 -170 -340 0 -3 -9 -24 -20 -48 -57
-123 -157 -435 -186 -582 -2 -11 -10 -54 -19 -95 -29 -147 -36 -200 -52 -370
-15 -165 -8 -592 12 -711 2 -13 6 -46 9 -74 9 -78 22 -152 51 -285 21 -96 91
-339 114 -395 5 -11 25 -65 46 -120 63 -166 249 -531 312 -610 4 -6 34 -49 65
-95 171 -256 432 -534 708 -755 92 -74 370 -265 386 -265 4 0 15 -6 23 -14 26
-22 297 -158 408 -204 283 -117 583 -199 862 -238 25 -3 57 -8 71 -10 193 -30
697 -24 907 10 21 4 53 8 70 11 128 15 394 81 573 142 560 190 1090 542 1480
982 36 41 70 79 75 85 9 9 65 81 87 111 4 6 18 24 31 40 13 17 54 74 91 127
l67 97 -63 -7 c-127 -14 -538 -5 -567 13 -4 2 -24 6 -46 9 -227 36 -540 178
-721 327 -229 189 -410 448 -519 744 -33 88 -78 261 -90 339 -3 21 -7 48 -10
60 -14 61 -28 276 -29 411 0 109 12 326 18 347 3 7 7 37 11 67 17 157 86 391
164 556 171 360 435 627 783 792 55 27 254 100 292 108 17 3 90 19 96 20 3 1
28 5 55 9 28 4 61 10 75 13 42 9 402 12 457 4 l51 -7 -51 74 c-380 545 -950
997 -1565 1241 -234 93 -545 179 -742 206 -19 3 -46 7 -60 10 -13 2 -52 7 -86
11 -33 3 -74 8 -90 10 -32 5 -540 14 -546 9z"/>
<path d="M6009 4739 c-20 -4 -47 -10 -60 -12 -52 -10 -157 -50 -216 -83 -331
-184 -511 -563 -515 -1084 -3 -382 67 -660 223 -885 121 -175 306 -298 518
-343 75 -16 123 -20 235 -18 200 5 338 43 473 133 56 37 173 148 173 164 0 4
6 14 14 22 37 37 66 118 90 252 43 243 51 334 51 610 0 222 -12 418 -30 500
-2 11 -7 43 -10 70 -4 28 -20 107 -35 177 -31 138 -51 177 -139 271 -89 95
-215 169 -358 208 -60 16 -113 22 -228 24 -82 2 -166 -1 -186 -6z"/>
</g>
</svg>
