<svg width="109" height="42" viewBox="0 0 109 42" fill="none" xmlns="http://www.w3.org/2000/svg">
<path fill-rule="evenodd" clip-rule="evenodd" d="M41.5645 25.2753C41.85 23.8949 42 22.465 42 21C42 19.1074 41.7496 17.2733 41.2802 15.5289C41.0201 15.0886 40.6949 14.7102 40.3046 14.394C39.8811 14.0508 39.3919 13.7879 38.8369 13.6053C38.2893 13.4228 37.6941 13.3315 37.0516 13.3315C35.8905 13.3315 34.8792 13.6199 34.0176 14.1968C33.1559 14.7664 32.4878 15.5988 32.0132 16.6941C31.5385 17.7821 31.3012 19.1038 31.3012 20.6591C31.3012 22.2582 31.5385 23.6018 32.0132 24.6898C32.4951 25.7778 33.1669 26.5993 34.0285 27.1542C34.8902 27.7092 35.8869 27.9867 37.0187 27.9867C37.654 27.9867 38.2418 27.9027 38.7821 27.7348C39.3298 27.5668 39.8154 27.3222 40.2389 27.0009C40.6624 26.6723 41.0129 26.2743 41.2904 25.807C41.3932 25.6384 41.4845 25.4611 41.5645 25.2753ZM38.8676 32.0395C35.1661 38.0177 28.5481 42 21 42C9.40202 42 0 32.598 0 21C0 9.40202 9.40202 0 21 0C28.2302 0 34.6069 3.65386 38.3845 9.21579C37.9174 9.16293 37.4366 9.1365 36.942 9.1365C34.9705 9.1365 33.1961 9.58922 31.6189 10.4947C30.0416 11.3928 28.793 12.6999 27.8729 14.4159C26.9529 16.1318 26.4928 18.2129 26.4928 20.6591C26.4928 23.098 26.9456 25.1754 27.851 26.8914C28.7638 28.6073 30.0051 29.9181 31.575 30.8235C33.1523 31.729 34.9413 32.1817 36.942 32.1817C37.6168 32.1817 38.2587 32.1343 38.8676 32.0395Z" fill="white"/>
<path d="M47.7729 19.6923V7.70018H52.9492C53.8393 7.70018 54.6181 7.87585 55.2856 8.22718C55.9531 8.57851 56.4723 9.07233 56.8432 9.70863C57.214 10.3449 57.3994 11.0886 57.3994 11.9396C57.3994 12.7984 57.2082 13.5421 56.8256 14.1706C56.4469 14.799 55.9141 15.2831 55.227 15.6227C54.5439 15.9623 53.7456 16.1322 52.8321 16.1322H49.7404V13.6026H52.1763C52.5589 13.6026 52.8848 13.5362 53.1542 13.4035C53.4274 13.2668 53.6363 13.0736 53.7807 12.8238C53.9291 12.5739 54.0032 12.2792 54.0032 11.9396C54.0032 11.5961 53.9291 11.3033 53.7807 11.0613C53.6363 10.8153 53.4274 10.6279 53.1542 10.4991C52.8848 10.3664 52.5589 10.3 52.1763 10.3H51.0286V19.6923H47.7729ZM58.6408 19.6923V10.6982H61.7794V12.408H61.8731C62.037 11.7756 62.2966 11.313 62.6519 11.0203C63.011 10.7275 63.4306 10.5811 63.9108 10.5811C64.0513 10.5811 64.1899 10.5928 64.3265 10.6162C64.4671 10.6358 64.6017 10.665 64.7306 10.7041V13.462C64.5705 13.4074 64.3734 13.3664 64.1392 13.3391C63.9049 13.3117 63.7039 13.2981 63.536 13.2981C63.2198 13.2981 62.9349 13.3703 62.6811 13.5147C62.4313 13.6553 62.2342 13.8544 62.0897 14.112C61.9453 14.3657 61.8731 14.6644 61.8731 15.0079V19.6923H58.6408ZM69.6082 19.8563C68.6323 19.8563 67.7969 19.663 67.1021 19.2766C66.4072 18.8862 65.8743 18.3436 65.5035 17.6487C65.1326 16.95 64.9472 16.14 64.9472 15.2187C64.9472 14.2974 65.1326 13.4894 65.5035 12.7945C65.8743 12.0957 66.4072 11.5531 67.1021 11.1667C67.7969 10.7763 68.6323 10.5811 69.6082 10.5811C70.5842 10.5811 71.4195 10.7763 72.1144 11.1667C72.8093 11.5531 73.3421 12.0957 73.713 12.7945C74.0838 13.4894 74.2692 14.2974 74.2692 15.2187C74.2692 16.14 74.0838 16.95 73.713 17.6487C73.3421 18.3436 72.8093 18.8862 72.1144 19.2766C71.4195 19.663 70.5842 19.8563 69.6082 19.8563ZM69.6317 17.4672C69.9049 17.4672 70.1411 17.3755 70.3402 17.192C70.5393 17.0085 70.6935 16.747 70.8028 16.4074C70.9121 16.0677 70.9667 15.6637 70.9667 15.1953C70.9667 14.7229 70.9121 14.3189 70.8028 13.9832C70.6935 13.6436 70.5393 13.382 70.3402 13.1985C70.1411 13.0151 69.9049 12.9233 69.6317 12.9233C69.3428 12.9233 69.0949 13.0151 68.888 13.1985C68.6811 13.382 68.523 13.6436 68.4137 13.9832C68.3044 14.3189 68.2497 14.7229 68.2497 15.1953C68.2497 15.6637 68.3044 16.0677 68.4137 16.4074C68.523 16.747 68.6811 17.0085 68.888 17.192C69.0949 17.3755 69.3428 17.4672 69.6317 17.4672ZM75.5809 10.6982H78.8131V19.9968C78.8131 20.7854 78.6472 21.4021 78.3154 21.8472C77.9875 22.2922 77.5269 22.6064 76.9335 22.7899C76.3401 22.9734 75.6472 23.0651 74.8548 23.0651C74.7377 23.0651 74.6303 23.0632 74.5327 23.0593C74.4312 23.0554 74.32 23.0495 74.199 23.0417V20.6526C74.277 20.6604 74.3454 20.6663 74.4039 20.6702C74.4586 20.6741 74.5152 20.6761 74.5737 20.6761C74.9602 20.6761 75.2237 20.6155 75.3642 20.4945C75.5087 20.3774 75.5809 20.1881 75.5809 19.9265V10.6982ZM77.197 9.76133C76.7598 9.76133 76.385 9.61689 76.0727 9.32802C75.7604 9.03915 75.6043 8.69172 75.6043 8.28573C75.6043 7.87975 75.7604 7.53232 76.0727 7.24345C76.385 6.95458 76.7598 6.81014 77.197 6.81014C77.6381 6.81014 78.0129 6.95458 78.3213 7.24345C78.6336 7.53232 78.7897 7.87975 78.7897 8.28573C78.7897 8.69172 78.6336 9.03915 78.3213 9.32802C78.0129 9.61689 77.6381 9.76133 77.197 9.76133ZM84.7697 19.8563C83.8094 19.8563 82.9818 19.6728 82.2869 19.3059C81.596 18.935 81.0631 18.4041 80.6884 17.7132C80.3175 17.0183 80.1321 16.1868 80.1321 15.2187C80.1321 14.2896 80.3195 13.4776 80.6942 12.7828C81.069 12.0879 81.5979 11.5473 82.2811 11.1608C82.9642 10.7743 83.7703 10.5811 84.6994 10.5811C85.3787 10.5811 85.9935 10.6865 86.5439 10.8973C87.0943 11.1081 87.5647 11.4145 87.9551 11.8166C88.3455 12.2148 88.646 12.6989 88.8568 13.2688C89.0676 13.8387 89.173 14.4809 89.173 15.1953V15.9448H81.1392V14.1647H86.1984C86.1945 13.9071 86.1282 13.6806 85.9993 13.4855C85.8744 13.2864 85.7046 13.1322 85.4899 13.0229C85.2791 12.9097 85.039 12.8531 84.7697 12.8531C84.5081 12.8531 84.2681 12.9097 84.0494 13.0229C83.8308 13.1322 83.6552 13.2844 83.5224 13.4796C83.3936 13.6748 83.3253 13.9031 83.3175 14.1647V16.0853C83.3175 16.3742 83.378 16.6318 83.499 16.8582C83.62 17.0847 83.7938 17.2623 84.0202 17.3911C84.2466 17.5199 84.5198 17.5843 84.8399 17.5843C85.0625 17.5843 85.2654 17.5531 85.4489 17.4906C85.6363 17.4282 85.7963 17.3384 85.9291 17.2213C86.0618 17.1003 86.1594 16.9558 86.2219 16.788H89.173C89.0715 17.4126 88.8315 17.9552 88.4528 18.4158C88.0742 18.8725 87.5725 19.2278 86.9479 19.4815C86.3273 19.7314 85.6012 19.8563 84.7697 19.8563ZM93.3964 17.5609L93.4198 13.7197H93.8414L96.0196 10.6982H99.6501L95.9962 15.4061H95.0827L93.3964 17.5609ZM90.492 19.6923V7.70018H93.7243V19.6923H90.492ZM96.0431 19.6923L93.9819 16.1322L96.0899 13.8368L99.7438 19.6923H96.0431ZM105.855 10.6982V13.0404H99.9297V10.6982H105.855ZM101.077 8.54338H104.31V16.7997C104.31 16.9246 104.331 17.03 104.374 17.1159C104.417 17.1979 104.483 17.2603 104.573 17.3033C104.663 17.3423 104.778 17.3618 104.919 17.3618C105.016 17.3618 105.129 17.3501 105.258 17.3267C105.391 17.3033 105.489 17.2837 105.551 17.2681L106.019 19.5401C105.875 19.583 105.668 19.6357 105.399 19.6982C105.133 19.7606 104.817 19.8016 104.45 19.8211C103.708 19.8602 103.086 19.7841 102.582 19.5928C102.079 19.3976 101.7 19.0912 101.446 18.6735C101.193 18.2558 101.07 17.7327 101.077 17.1042V8.54338ZM58.9687 26.1972H55.6662C55.6428 25.924 55.5803 25.6761 55.4788 25.4536C55.3812 25.2311 55.2446 25.0398 55.0689 24.8797C54.8972 24.7158 54.6883 24.5909 54.4424 24.505C54.1965 24.4152 53.9173 24.3703 53.605 24.3703C53.0585 24.3703 52.5959 24.503 52.2173 24.7685C51.8425 25.0339 51.5576 25.4145 51.3624 25.9103C51.1711 26.4061 51.0755 27.0014 51.0755 27.6963C51.0755 28.4301 51.173 29.045 51.3682 29.5407C51.5673 30.0326 51.8542 30.4035 52.229 30.6533C52.6037 30.8992 53.0546 31.0222 53.5816 31.0222C53.8822 31.0222 54.1516 30.9851 54.3897 30.9109C54.6278 30.8329 54.8347 30.7216 55.0104 30.5772C55.186 30.4327 55.3285 30.259 55.4378 30.056C55.551 29.8491 55.6272 29.6169 55.6662 29.3592L58.9687 29.3826C58.9297 29.8901 58.7872 30.4074 58.5413 30.9344C58.2953 31.4575 57.946 31.9415 57.4931 32.3865C57.0442 32.8277 56.4879 33.1829 55.8243 33.4522C55.1607 33.7216 54.3897 33.8563 53.5114 33.8563C52.4105 33.8563 51.4229 33.6201 50.5485 33.1478C49.6779 32.6754 48.9889 31.9806 48.4815 31.0632C47.9779 30.1458 47.7261 29.0235 47.7261 27.6963C47.7261 26.3612 47.9837 25.2369 48.499 24.3235C49.0143 23.4061 49.7092 22.7132 50.5836 22.2447C51.458 21.7724 52.4339 21.5362 53.5114 21.5362C54.2687 21.5362 54.9655 21.6397 55.6018 21.8466C56.2381 22.0535 56.7963 22.356 57.2765 22.7542C57.7566 23.1485 58.1431 23.6345 58.4359 24.2122C58.7286 24.79 58.9063 25.4516 58.9687 26.1972ZM60.4926 33.6923V24.6982H63.6312V26.408H63.7249C63.8888 25.7756 64.1484 25.313 64.5037 25.0203C64.8628 24.7275 65.2825 24.5811 65.7626 24.5811C65.9031 24.5811 66.0417 24.5928 66.1783 24.6162C66.3189 24.6358 66.4536 24.665 66.5824 24.7041V27.462C66.4223 27.4074 66.2252 27.3664 65.991 27.3391C65.7568 27.3117 65.5557 27.2981 65.3879 27.2981C65.0717 27.2981 64.7867 27.3703 64.5329 27.5147C64.2831 27.6553 64.086 27.8544 63.9415 28.112C63.7971 28.3657 63.7249 28.6644 63.7249 29.0079V33.6923H60.4926ZM69.7297 33.8329C69.1559 33.8329 68.6484 33.7392 68.2073 33.5518C67.7701 33.3605 67.4266 33.0716 67.1767 32.6852C66.9269 32.2987 66.802 31.8068 66.802 31.2096C66.802 30.7177 66.8859 30.2981 67.0538 29.9506C67.2216 29.5993 67.4558 29.3124 67.7564 29.0899C68.057 28.8674 68.4064 28.6975 68.8046 28.5804C69.2066 28.4633 69.6399 28.3872 70.1045 28.3521C70.6081 28.313 71.0121 28.2662 71.3166 28.2115C71.625 28.153 71.8475 28.073 71.9841 27.9715C72.1207 27.8661 72.1891 27.7275 72.1891 27.5557V27.5323C72.1891 27.2981 72.0993 27.1185 71.9197 26.9936C71.7401 26.8687 71.5098 26.8062 71.2287 26.8062C70.9204 26.8062 70.6686 26.8745 70.4734 27.0112C70.2821 27.1439 70.1669 27.3488 70.1279 27.626H67.1533C67.1923 27.0795 67.366 26.5759 67.6744 26.1153C67.9867 25.6507 68.4415 25.2799 69.0388 25.0027C69.636 24.7216 70.3816 24.5811 71.2756 24.5811C71.9197 24.5811 72.4974 24.6572 73.0088 24.8095C73.5202 24.9578 73.9555 25.1667 74.3146 25.436C74.6738 25.7015 74.947 26.0138 75.1344 26.3729C75.3257 26.7281 75.4213 27.1146 75.4213 27.5323V33.6923H72.3999V32.4275H72.3296C72.15 32.7632 71.9314 33.0345 71.6738 33.2414C71.42 33.4483 71.1292 33.5986 70.8013 33.6923C70.4773 33.786 70.1201 33.8329 69.7297 33.8329ZM70.7837 31.7951C71.0297 31.7951 71.26 31.7444 71.4747 31.6429C71.6933 31.5414 71.8709 31.395 72.0075 31.2037C72.1442 31.0124 72.2125 30.7802 72.2125 30.5069V29.7574C72.1266 29.7925 72.0349 29.8257 71.9373 29.8569C71.8436 29.8882 71.7421 29.9175 71.6328 29.9448C71.5274 29.9721 71.4142 29.9975 71.2932 30.0209C71.176 30.0443 71.0531 30.0658 70.9243 30.0853C70.6744 30.1243 70.4695 30.1888 70.3094 30.2785C70.1533 30.3644 70.0362 30.4718 69.9581 30.6006C69.8839 30.7255 69.8468 30.866 69.8468 31.0222C69.8468 31.272 69.9347 31.4633 70.1103 31.596C70.286 31.7288 70.5105 31.7951 70.7837 31.7951ZM76.9657 33.6923V24.6982H80.034V26.408H80.1277C80.3151 25.8459 80.6352 25.4009 81.088 25.073C81.5408 24.7451 82.0795 24.5811 82.7041 24.5811C83.3365 24.5811 83.8811 24.749 84.3378 25.0847C84.7946 25.4165 85.0698 25.8576 85.1635 26.408H85.2572C85.4094 25.8576 85.7334 25.4165 86.2292 25.0847C86.7249 24.749 87.3066 24.5811 87.9741 24.5811C88.8368 24.5811 89.5356 24.8583 90.0704 25.4126C90.6091 25.9669 90.8785 26.7047 90.8785 27.626V33.6923H87.6462V28.4458C87.6462 28.0515 87.5467 27.7431 87.3476 27.5206C87.1485 27.2942 86.8811 27.181 86.5454 27.181C86.2136 27.181 85.9501 27.2942 85.7549 27.5206C85.5636 27.7431 85.468 28.0515 85.468 28.4458V33.6923H82.3762V28.4458C82.3762 28.0515 82.2767 27.7431 82.0776 27.5206C81.8785 27.2942 81.6111 27.181 81.2754 27.181C81.0529 27.181 80.8616 27.2317 80.7015 27.3332C80.5415 27.4347 80.4166 27.5811 80.3268 27.7724C80.2409 27.9598 80.198 28.1842 80.198 28.4458V33.6923H76.9657ZM96.7823 33.8563C95.822 33.8563 94.9944 33.6728 94.2996 33.3059C93.6086 32.935 93.0758 32.4041 92.701 31.7132C92.3302 31.0183 92.1447 30.1868 92.1447 29.2187C92.1447 28.2896 92.3321 27.4776 92.7069 26.7828C93.0816 26.0879 93.6106 25.5473 94.2937 25.1608C94.9769 24.7743 95.783 24.5811 96.712 24.5811C97.3913 24.5811 98.0061 24.6865 98.5565 24.8973C99.107 25.1081 99.5774 25.4145 99.9677 25.8166C100.358 26.2148 100.659 26.6989 100.869 27.2688C101.08 27.8387 101.186 28.4809 101.186 29.1953V29.9448H93.1519V28.1647H98.2111C98.2072 27.9071 98.1408 27.6806 98.012 27.4855C97.8871 27.2864 97.7172 27.1322 97.5025 27.0229C97.2917 26.9097 97.0517 26.8531 96.7823 26.8531C96.5208 26.8531 96.2807 26.9097 96.0621 27.0229C95.8435 27.1322 95.6678 27.2844 95.5351 27.4796C95.4063 27.6748 95.3379 27.9031 95.3301 28.1647V30.0853C95.3301 30.3742 95.3906 30.6318 95.5117 30.8582C95.6327 31.0847 95.8064 31.2623 96.0328 31.3911C96.2592 31.5199 96.5325 31.5843 96.8526 31.5843C97.0751 31.5843 97.2781 31.5531 97.4616 31.4906C97.6489 31.4282 97.809 31.3384 97.9417 31.2213C98.0744 31.1003 98.172 30.9558 98.2345 30.788H101.186C101.084 31.4126 100.844 31.9552 100.465 32.4158C100.087 32.8725 99.5852 33.2278 98.9606 33.4815C98.3399 33.7314 97.6138 33.8563 96.7823 33.8563ZM102.505 33.6923V24.6982H105.643V26.408H105.737C105.901 25.7756 106.16 25.313 106.516 25.0203C106.875 24.7275 107.294 24.5811 107.775 24.5811C107.915 24.5811 108.054 24.5928 108.19 24.6162C108.331 24.6358 108.466 24.665 108.594 24.7041V27.462C108.434 27.4074 108.237 27.3664 108.003 27.3391C107.769 27.3117 107.568 27.2981 107.4 27.2981C107.084 27.2981 106.799 27.3703 106.545 27.5147C106.295 27.6553 106.098 27.8544 105.954 28.112C105.809 28.3657 105.737 28.6644 105.737 29.0079V33.6923H102.505Z" fill="white"/>
</svg>
