<svg width="683" height="113" viewBox="0 0 683 113" fill="none" xmlns="http://www.w3.org/2000/svg">
<path fill-rule="evenodd" clip-rule="evenodd" d="M111.653 68.8188C112.535 64.8534 113 60.731 113 56.5C113 51.6938 112.4 47.0278 111.271 42.5728C111.26 42.5534 111.249 42.534 111.238 42.5146C110.511 41.1983 109.578 40.0785 108.439 39.1552C107.299 38.2318 105.983 37.5245 104.49 37.0334C103.016 36.5423 101.415 36.2967 99.6863 36.2967C96.5626 36.2967 93.8417 37.0727 91.5235 38.6247C89.2052 40.1571 87.4076 42.3967 86.1306 45.3436C84.8537 48.2709 84.2152 51.8268 84.2152 56.0114C84.2152 60.3138 84.8537 63.9287 86.1306 66.8559C87.4273 69.7832 89.2347 71.9933 91.5529 73.4864C93.8711 74.9795 96.5528 75.726 99.5979 75.726C101.307 75.726 102.889 75.5001 104.342 75.0483C105.816 74.5964 107.122 73.9383 108.262 73.0738C109.401 72.1898 110.344 71.1191 111.091 69.8617C111.295 69.5267 111.482 69.179 111.653 68.8188ZM104.276 86.6746C94.2631 102.495 76.6083 113 56.5 113C25.2959 113 0 87.7041 0 56.5C0 25.2959 25.2959 0 56.5 0C76.1536 0 93.4634 10.0348 103.585 25.2604C102.231 25.0935 100.833 25.0101 99.3916 25.0101C94.0872 25.0101 89.3133 26.2281 85.0698 28.6642C80.8262 31.0807 77.4668 34.5973 74.9914 39.2141C72.516 43.8309 71.2783 49.43 71.2783 56.0114C71.2783 62.5731 72.4964 68.1624 74.9325 72.7792C77.3882 77.396 80.728 80.9224 84.9519 83.3585C89.1954 85.7946 94.0087 87.0126 99.3916 87.0126C101.098 87.0126 102.726 86.9 104.276 86.6746Z" fill="white"/>
<path d="M127.781 78.1875V34.5284H145.816C149.085 34.5284 151.906 35.1679 154.279 36.447C156.667 37.7119 158.507 39.4813 159.8 41.7552C161.094 44.0149 161.74 46.6441 161.74 49.6428C161.74 52.6557 161.079 55.2921 159.758 57.5518C158.45 59.7972 156.581 61.5382 154.151 62.7746C151.721 64.0111 148.836 64.6293 145.496 64.6293H134.368V56.3153H143.535C145.127 56.3153 146.455 56.0382 147.521 55.4839C148.601 54.9297 149.419 54.1551 149.973 53.1603C150.527 52.1512 150.804 50.9787 150.804 49.6428C150.804 48.2927 150.527 47.1273 149.973 46.1467C149.419 45.1518 148.601 44.3844 147.521 43.8443C146.441 43.3043 145.112 43.0343 143.535 43.0343H138.333V78.1875H127.781ZM166.942 78.1875V34.5284H184.977C188.246 34.5284 191.067 35.1182 193.44 36.2978C195.828 37.4632 197.668 39.1402 198.961 41.3288C200.255 43.5032 200.901 46.0827 200.901 49.0672C200.901 52.0944 200.24 54.6667 198.919 56.7843C197.597 58.8877 195.721 60.4936 193.291 61.6022C190.861 62.6965 187.983 63.2436 184.657 63.2436H173.252V54.9297H182.696C184.288 54.9297 185.616 54.7236 186.682 54.3114C187.762 53.8851 188.58 53.2455 189.134 52.3928C189.688 51.5259 189.965 50.4174 189.965 49.0672C189.965 47.7171 189.688 46.6015 189.134 45.7203C188.58 44.825 187.762 44.157 186.682 43.7164C185.602 43.2616 184.273 43.0343 182.696 43.0343H177.494V78.1875H166.942ZM191.521 58.2339L202.394 78.1875H190.882L180.223 58.2339H191.521ZM247.897 56.358C247.897 61.1616 246.973 65.2333 245.125 68.5731C243.278 71.9129 240.776 74.4498 237.621 76.1836C234.481 77.9175 230.956 78.7844 227.048 78.7844C223.125 78.7844 219.594 77.9104 216.453 76.1623C213.312 74.4142 210.818 71.8774 208.97 68.5518C207.137 65.212 206.22 61.1474 206.22 56.358C206.22 51.5543 207.137 47.4826 208.97 44.1428C210.818 40.803 213.312 38.2661 216.453 36.5323C219.594 34.7984 223.125 33.9315 227.048 33.9315C230.956 33.9315 234.481 34.7984 237.621 36.5323C240.776 38.2661 243.278 40.803 245.125 44.1428C246.973 47.4826 247.897 51.5543 247.897 56.358ZM237.11 56.358C237.11 53.5156 236.705 51.1137 235.895 49.1525C235.099 47.1912 233.948 45.7061 232.441 44.6971C230.949 43.688 229.151 43.1835 227.048 43.1835C224.959 43.1835 223.161 43.688 221.654 44.6971C220.148 45.7061 218.99 47.1912 218.179 49.1525C217.384 51.1137 216.986 53.5156 216.986 56.358C216.986 59.2003 217.384 61.6022 218.179 63.5634C218.99 65.5247 220.148 67.0098 221.654 68.0189C223.161 69.0279 224.959 69.5324 227.048 69.5324C229.151 69.5324 230.949 69.0279 232.441 68.0189C233.948 67.0098 235.099 65.5247 235.895 63.5634C236.705 61.6022 237.11 59.2003 237.11 56.358ZM271.794 34.5284H282.197V64.7146C282.183 67.5428 281.508 70.0156 280.172 72.1332C278.836 74.2366 276.988 75.871 274.629 77.0363C272.284 78.2017 269.57 78.7844 266.486 78.7844C263.757 78.7844 261.277 78.3083 259.046 77.3561C256.829 76.4039 255.059 74.9259 253.738 72.922C252.43 70.9181 251.784 68.3528 251.798 65.2262H262.308C262.35 66.349 262.563 67.3083 262.947 68.1041C263.345 68.8858 263.892 69.4756 264.589 69.8735C265.285 70.2714 266.116 70.4704 267.083 70.4704C268.092 70.4704 268.945 70.2572 269.641 69.8309C270.337 69.3903 270.863 68.7437 271.218 67.8909C271.588 67.0382 271.78 65.9794 271.794 64.7146V34.5284ZM288.822 78.1875V34.5284H319.264V43.0982H299.374V52.0517H317.707V60.6429H299.374V69.6177H319.264V78.1875H288.822ZM325.872 78.1875V34.5284H336.425V52.9897H337L351.432 34.5284H363.861L348.384 54.013L364.138 78.1875H351.518L340.646 61.0266L336.425 66.3561V78.1875H325.872ZM366.595 43.0982V34.5284H403.496V43.0982H390.258V78.1875H379.855V43.0982H366.595ZM461.177 50.3463H450.518C450.376 49.252 450.085 48.2643 449.644 47.3831C449.203 46.502 448.621 45.7487 447.896 45.1234C447.171 44.4981 446.311 44.022 445.317 43.6951C444.336 43.354 443.249 43.1835 442.055 43.1835C439.937 43.1835 438.111 43.7022 436.576 44.7397C435.055 45.7772 433.883 47.2765 433.059 49.2378C432.249 51.199 431.844 53.5724 431.844 56.358C431.844 59.2572 432.256 61.6874 433.08 63.6487C433.919 65.5957 435.091 67.0667 436.597 68.0615C438.118 69.0421 439.916 69.5324 441.991 69.5324C443.156 69.5324 444.215 69.3832 445.167 69.0847C446.134 68.7863 446.979 68.3528 447.704 67.7844C448.443 67.2017 449.047 66.4982 449.516 65.6739C449.999 64.8354 450.333 63.8903 450.518 62.8386L461.177 62.9026C460.992 64.8354 460.431 66.7398 459.493 68.6158C458.569 70.4917 457.297 72.2043 455.677 73.7534C454.057 75.2883 452.081 76.5105 449.751 77.4201C447.434 78.3296 444.776 78.7844 441.778 78.7844C437.827 78.7844 434.288 77.9175 431.161 76.1836C428.049 74.4355 425.59 71.8916 423.785 68.5518C421.981 65.212 421.078 61.1474 421.078 56.358C421.078 51.5543 421.995 47.4826 423.828 44.1428C425.661 40.803 428.141 38.2661 431.268 36.5323C434.395 34.7984 437.898 33.9315 441.778 33.9315C444.421 33.9315 446.866 34.301 449.111 35.04C451.357 35.7648 453.332 36.8307 455.037 38.2377C456.743 39.6305 458.129 41.343 459.194 43.3753C460.26 45.4077 460.921 47.7313 461.177 50.3463ZM467.215 78.1875V34.5284H485.25C488.519 34.5284 491.34 35.1182 493.714 36.2978C496.101 37.4632 497.942 39.1402 499.235 41.3288C500.528 43.5032 501.175 46.0827 501.175 49.0672C501.175 52.0944 500.514 54.6667 499.192 56.7843C497.871 58.8877 495.995 60.4936 493.564 61.6022C491.134 62.6965 488.256 63.2436 484.931 63.2436H473.525V54.9297H482.969C484.561 54.9297 485.89 54.7236 486.956 54.3114C488.036 53.8851 488.853 53.2455 489.407 52.3928C489.962 51.5259 490.239 50.4174 490.239 49.0672C490.239 47.7171 489.962 46.6015 489.407 45.7203C488.853 44.825 488.036 44.157 486.956 43.7164C485.876 43.2616 484.547 43.0343 482.969 43.0343H477.768V78.1875H467.215ZM491.795 58.2339L502.667 78.1875H491.155L480.496 58.2339H491.795ZM516.406 78.1875H505.065L519.796 34.5284H533.844L548.575 78.1875H537.234L526.98 45.5285H526.639L516.406 78.1875ZM514.893 61.0053H538.598V69.0208H514.893V61.0053ZM553.276 34.5284H566.344L577.429 61.5595H577.941L589.026 34.5284H602.094V78.1875H591.819V51.3696H591.456L580.968 77.9104H574.402L563.913 51.2203H563.551V78.1875H553.276V34.5284ZM608.676 78.1875V34.5284H639.118V43.0982H619.228V52.0517H637.561V60.6429H619.228V69.6177H639.118V78.1875H608.676ZM645.726 78.1875V34.5284H663.761C667.03 34.5284 669.851 35.1182 672.224 36.2978C674.612 37.4632 676.452 39.1402 677.746 41.3288C679.039 43.5032 679.686 46.0827 679.686 49.0672C679.686 52.0944 679.025 54.6667 677.703 56.7843C676.381 58.8877 674.505 60.4936 672.075 61.6022C669.645 62.6965 666.767 63.2436 663.441 63.2436H652.036V54.9297H661.48C663.072 54.9297 664.401 54.7236 665.467 54.3114C666.547 53.8851 667.364 53.2455 667.918 52.3928C668.472 51.5259 668.75 50.4174 668.75 49.0672C668.75 47.7171 668.472 46.6015 667.918 45.7203C667.364 44.825 666.547 44.157 665.467 43.7164C664.387 43.2616 663.058 43.0343 661.48 43.0343H656.279V78.1875H645.726ZM670.306 58.2339L681.178 78.1875H669.666L659.007 58.2339H670.306Z" fill="white"/>
</svg>
