<svg width="42" height="42" viewBox="0 0 42 42" fill="none" xmlns="http://www.w3.org/2000/svg">
<path fill-rule="evenodd" clip-rule="evenodd" d="M41.5645 25.2753C41.85 23.8949 42 22.465 42 21C42 19.1074 41.7496 17.2733 41.2802 15.5289C41.0201 15.0886 40.6949 14.7102 40.3046 14.394C39.8811 14.0508 39.3919 13.7879 38.8369 13.6053C38.2893 13.4228 37.6941 13.3315 37.0516 13.3315C35.8905 13.3315 34.8792 13.6199 34.0176 14.1968C33.1559 14.7664 32.4878 15.5988 32.0132 16.6941C31.5385 17.7821 31.3012 19.1038 31.3012 20.6591C31.3012 22.2582 31.5385 23.6018 32.0132 24.6898C32.4951 25.7778 33.1669 26.5993 34.0285 27.1542C34.8902 27.7092 35.8869 27.9867 37.0187 27.9867C37.654 27.9867 38.2418 27.9027 38.7821 27.7348C39.3298 27.5668 39.8154 27.3222 40.2389 27.0009C40.6624 26.6723 41.0129 26.2743 41.2904 25.807C41.3932 25.6384 41.4845 25.4611 41.5645 25.2753ZM38.8676 32.0395C35.1661 38.0177 28.5481 42 21 42C9.40202 42 0 32.598 0 21C0 9.40202 9.40202 0 21 0C28.2302 0 34.6069 3.65386 38.3845 9.21579C37.9174 9.16293 37.4366 9.1365 36.942 9.1365C34.9705 9.1365 33.1961 9.58922 31.6189 10.4947C30.0416 11.3928 28.793 12.6999 27.8729 14.4159C26.9529 16.1318 26.4928 18.2129 26.4928 20.6591C26.4928 23.098 26.9456 25.1754 27.851 26.8914C28.7638 28.6073 30.0051 29.9181 31.575 30.8235C33.1523 31.729 34.9413 32.1817 36.942 32.1817C37.6168 32.1817 38.2587 32.1343 38.8676 32.0395Z" fill="white"/>
</svg>
